<svg width="20" height="20" viewBox="0 0 20 20" fill="none" xmlns="http://www.w3.org/2000/svg">
<path d="M11.667 6.6665H12.5003C12.7213 6.6665 12.9333 6.57871 13.0896 6.42243C13.2459 6.26615 13.3337 6.05418 13.3337 5.83317C13.3337 5.61216 13.2459 5.4002 13.0896 5.24392C12.9333 5.08764 12.7213 4.99984 12.5003 4.99984H11.667C11.446 4.99984 11.234 5.08764 11.0777 5.24392C10.9215 5.4002 10.8337 5.61216 10.8337 5.83317C10.8337 6.05418 10.9215 6.26615 11.0777 6.42243C11.234 6.57871 11.446 6.6665 11.667 6.6665ZM11.667 9.99984H12.5003C12.7213 9.99984 12.9333 9.91204 13.0896 9.75576C13.2459 9.59948 13.3337 9.38752 13.3337 9.1665C13.3337 8.94549 13.2459 8.73353 13.0896 8.57725C12.9333 8.42097 12.7213 8.33317 12.5003 8.33317H11.667C11.446 8.33317 11.234 8.42097 11.0777 8.57725C10.9215 8.73353 10.8337 8.94549 10.8337 9.1665C10.8337 9.38752 10.9215 9.59948 11.0777 9.75576C11.234 9.91204 11.446 9.99984 11.667 9.99984ZM7.50033 6.6665H8.33366C8.55467 6.6665 8.76663 6.57871 8.92291 6.42243C9.0792 6.26615 9.16699 6.05418 9.16699 5.83317C9.16699 5.61216 9.0792 5.4002 8.92291 5.24392C8.76663 5.08764 8.55467 4.99984 8.33366 4.99984H7.50033C7.27931 4.99984 7.06735 5.08764 6.91107 5.24392C6.75479 5.4002 6.66699 5.61216 6.66699 5.83317C6.66699 6.05418 6.75479 6.26615 6.91107 6.42243C7.06735 6.57871 7.27931 6.6665 7.50033 6.6665ZM7.50033 9.99984H8.33366C8.55467 9.99984 8.76663 9.91204 8.92291 9.75576C9.0792 9.59948 9.16699 9.38752 9.16699 9.1665C9.16699 8.94549 9.0792 8.73353 8.92291 8.57725C8.76663 8.42097 8.55467 8.33317 8.33366 8.33317H7.50033C7.27931 8.33317 7.06735 8.42097 6.91107 8.57725C6.75479 8.73353 6.66699 8.94549 6.66699 9.1665C6.66699 9.38752 6.75479 9.59948 6.91107 9.75576C7.06735 9.91204 7.27931 9.99984 7.50033 9.99984ZM17.5003 16.6665H16.667V2.49984C16.667 2.27882 16.5792 2.06686 16.4229 1.91058C16.2666 1.7543 16.0547 1.6665 15.8337 1.6665H4.16699C3.94598 1.6665 3.73402 1.7543 3.57774 1.91058C3.42146 2.06686 3.33366 2.27882 3.33366 2.49984V16.6665H2.50033C2.27931 16.6665 2.06735 16.7543 1.91107 16.9106C1.75479 17.0669 1.66699 17.2788 1.66699 17.4998C1.66699 17.7209 1.75479 17.9328 1.91107 18.0891C2.06735 18.2454 2.27931 18.3332 2.50033 18.3332H17.5003C17.7213 18.3332 17.9333 18.2454 18.0896 18.0891C18.2459 17.9328 18.3337 17.7209 18.3337 17.4998C18.3337 17.2788 18.2459 17.0669 18.0896 16.9106C17.9333 16.7543 17.7213 16.6665 17.5003 16.6665ZM10.8337 16.6665H9.16699V13.3332H10.8337V16.6665ZM15.0003 16.6665H12.5003V12.4998C12.5003 12.2788 12.4125 12.0669 12.2562 11.9106C12.1 11.7543 11.888 11.6665 11.667 11.6665H8.33366C8.11265 11.6665 7.90068 11.7543 7.7444 11.9106C7.58812 12.0669 7.50033 12.2788 7.50033 12.4998V16.6665H5.00033V3.33317H15.0003V16.6665Z" fill="#B1B5C4"/>
</svg>
