<svg width="22" height="22" viewBox="0 0 22 22" fill="none" xmlns="http://www.w3.org/2000/svg">
<path d="M10.9997 1.8335C9.02436 1.8335 7.12996 2.60611 5.7332 3.98137C4.33645 5.35663 3.55176 7.22189 3.55176 9.16681C3.55176 14.1168 10.1152 19.7084 10.3945 19.9468C10.5632 20.0888 10.7778 20.1668 10.9997 20.1668C11.2216 20.1668 11.4362 20.0888 11.6048 19.9468C11.9307 19.7084 18.4476 14.1168 18.4476 9.16681C18.4476 7.22189 17.6629 5.35663 16.2661 3.98137C14.8694 2.60611 12.975 1.8335 10.9997 1.8335ZM10.9997 18.0126C9.01667 16.1793 5.41374 12.2285 5.41374 9.16681C5.41374 7.70812 6.00225 6.30918 7.04982 5.27773C8.09739 4.24628 9.51819 3.66682 10.9997 3.66682C12.4812 3.66682 13.902 4.24628 14.9495 5.27773C15.9971 6.30918 16.5856 7.70812 16.5856 9.16681C16.5856 12.2285 12.9827 16.1884 10.9997 18.0126ZM10.9997 5.50015C10.2631 5.50015 9.54316 5.7152 8.93075 6.11809C8.31835 6.52099 7.84104 7.09364 7.55919 7.76364C7.27733 8.43363 7.20358 9.17087 7.34727 9.88213C7.49096 10.5934 7.84563 11.2467 8.36644 11.7595C8.88724 12.2723 9.55079 12.6215 10.2732 12.763C10.9955 12.9045 11.7443 12.8319 12.4248 12.5544C13.1052 12.2768 13.6868 11.8069 14.096 11.2039C14.5052 10.6009 14.7236 9.892 14.7236 9.16681C14.7236 8.19435 14.3313 7.26172 13.6329 6.57409C12.9345 5.88646 11.9873 5.50015 10.9997 5.50015ZM10.9997 11.0001C10.6314 11.0001 10.2714 10.8926 9.96521 10.6912C9.65901 10.4897 9.42036 10.2034 9.27943 9.86839C9.1385 9.53339 9.10163 9.16477 9.17347 8.80914C9.24532 8.45351 9.42265 8.12684 9.68306 7.87045C9.94346 7.61405 10.2752 7.43944 10.6364 7.3687C10.9976 7.29797 11.372 7.33427 11.7122 7.47303C12.0525 7.61179 12.3433 7.84677 12.5479 8.14826C12.7524 8.44975 12.8617 8.80421 12.8617 9.16681C12.8617 9.65303 12.6655 10.1193 12.3163 10.4632C11.9671 10.807 11.4935 11.0001 10.9997 11.0001Z" fill="#B1B5C4"/>
</svg>
