<svg width="24" height="24" viewBox="0 0 24 24" fill="none" xmlns="http://www.w3.org/2000/svg">
<path d="M19.6857 12.804C19.5703 12.7058 19.4305 12.643 19.2821 12.6226C19.1337 12.6023 18.9827 12.6252 18.8464 12.6888C18.001 13.0868 17.082 13.2917 16.1523 13.2893C14.4327 13.2871 12.7836 12.5855 11.5646 11.3374C10.3456 10.0892 9.65567 8.39581 9.64512 6.62634C9.64876 6.07178 9.71584 5.51959 9.84497 4.98117C9.87237 4.83766 9.86209 4.68923 9.8152 4.55117C9.7683 4.4131 9.68648 4.29041 9.57816 4.19571C9.46984 4.10101 9.33895 4.03774 9.19896 4.01242C9.05898 3.9871 8.91496 4.00064 8.78175 4.05165C7.52853 4.6315 6.43913 5.52964 5.61588 6.6617C4.79264 7.79376 4.26258 9.12258 4.07549 10.5233C3.8884 11.9241 4.05043 13.3508 4.54636 14.6694C5.04229 15.988 5.85583 17.1552 6.91057 18.0615C7.9653 18.9677 9.22661 19.5832 10.576 19.8501C11.9254 20.1169 13.3185 20.0265 14.6246 19.5872C15.9307 19.1479 17.1068 18.3741 18.0425 17.3387C18.9781 16.3032 19.6426 15.04 19.9735 13.6677C20.0138 13.5105 20.008 13.3447 19.9568 13.191C19.9056 13.0372 19.8113 12.9026 19.6857 12.804V12.804ZM12.0913 18.307C10.7497 18.2973 9.44383 17.8611 8.35246 17.0581C7.2611 16.2552 6.43761 15.1247 5.99475 13.8216C5.55188 12.5184 5.5113 11.1063 5.87856 9.77849C6.24581 8.45069 7.00294 7.27215 8.04629 6.40424V6.62634C8.04841 8.83785 8.90311 10.9581 10.4228 12.5219C11.9426 14.0857 14.0031 14.9652 16.1523 14.9674C16.7166 14.9695 17.2795 14.9088 17.8311 14.7864C17.2794 15.8603 16.4533 16.7588 15.4418 17.385C14.4303 18.0113 13.2718 18.3415 12.0913 18.3399V18.307Z" fill="#84878B"/>
</svg>
