<svg width="25" height="25" viewBox="0 0 25 25" fill="none" xmlns="http://www.w3.org/2000/svg">
<ellipse cx="11.6936" cy="12.7102" rx="6.12919" ry="6.12625" fill="#4A4E54"/>
<mask id="path-2-inside-1_356_11361" fill="white">
<ellipse cx="12.1425" cy="3.52104" rx="0.993061" ry="1.02104"/>
</mask>
<ellipse cx="12.1425" cy="3.52104" rx="0.993061" ry="1.02104" fill="#4A4E54"/>
<path d="M12.1355 3.52104C12.1355 3.52973 12.134 3.53491 12.1327 3.53804C12.1312 3.54176 12.1292 3.54437 12.1278 3.54581C12.1264 3.54724 12.1268 3.5463 12.1302 3.54481C12.132 3.54404 12.1342 3.5433 12.1367 3.54276C12.1393 3.54222 12.1414 3.54208 12.1425 3.54208V5.54208C13.2692 5.54208 14.1355 4.61086 14.1355 3.52104H12.1355ZM12.1425 3.54208C12.1436 3.54208 12.1456 3.54222 12.1482 3.54276C12.1508 3.5433 12.153 3.54404 12.1547 3.54481C12.1582 3.5463 12.1585 3.54724 12.1571 3.54581C12.1557 3.54437 12.1538 3.54176 12.1523 3.53804C12.151 3.53491 12.1494 3.52973 12.1494 3.52104H10.1494C10.1494 4.61086 11.0157 5.54208 12.1425 5.54208V3.54208ZM12.1494 3.52104C12.1494 3.51236 12.151 3.50717 12.1523 3.50405C12.1538 3.50032 12.1557 3.49771 12.1571 3.49627C12.1585 3.49484 12.1582 3.49579 12.1547 3.49728C12.153 3.49804 12.1508 3.49879 12.1482 3.49932C12.1456 3.49986 12.1436 3.5 12.1425 3.5V1.5C11.0157 1.5 10.1494 2.43123 10.1494 3.52104H12.1494ZM12.1425 3.5C12.1414 3.5 12.1393 3.49986 12.1367 3.49932C12.1342 3.49879 12.132 3.49804 12.1302 3.49728C12.1268 3.49579 12.1264 3.49484 12.1278 3.49627C12.1292 3.49771 12.1312 3.50032 12.1327 3.50405C12.134 3.50717 12.1355 3.51236 12.1355 3.52104H14.1355C14.1355 2.43123 13.2692 1.5 12.1425 1.5V3.5Z" fill="#4A4E54" mask="url(#path-2-inside-1_356_11361)"/>
<mask id="path-4-inside-2_356_11361" fill="white">
<ellipse cx="18.1122" cy="6.34135" rx="0.993061" ry="1.02104"/>
</mask>
<ellipse cx="18.1122" cy="6.34135" rx="0.993061" ry="1.02104" fill="#4A4E54"/>
<path d="M18.1053 6.34135C18.1053 6.35004 18.1037 6.35522 18.1024 6.35835C18.1009 6.36207 18.0989 6.36468 18.0975 6.36612C18.0961 6.36755 18.0965 6.36661 18.0999 6.36512C18.1017 6.36436 18.1039 6.36361 18.1064 6.36308C18.109 6.36253 18.1111 6.3624 18.1122 6.3624V8.3624C19.239 8.3624 20.1053 7.43117 20.1053 6.34135H18.1053ZM18.1122 6.3624C18.1133 6.3624 18.1154 6.36253 18.118 6.36308C18.1205 6.36361 18.1227 6.36436 18.1245 6.36512C18.1279 6.36661 18.1283 6.36755 18.1269 6.36612C18.1255 6.36468 18.1235 6.36207 18.122 6.35835C18.1207 6.35522 18.1191 6.35004 18.1191 6.34135H16.1191C16.1191 7.43117 16.9855 8.3624 18.1122 8.3624V6.3624ZM18.1191 6.34135C18.1191 6.33267 18.1207 6.32749 18.122 6.32436C18.1235 6.32064 18.1255 6.31803 18.1269 6.31658C18.1283 6.31515 18.1279 6.3161 18.1245 6.31759C18.1227 6.31835 18.1205 6.3191 18.118 6.31963C18.1154 6.32018 18.1133 6.32031 18.1122 6.32031V4.32031C16.9855 4.32031 16.1191 5.25154 16.1191 6.34135H18.1191ZM18.1122 6.32031C18.1111 6.32031 18.109 6.32018 18.1064 6.31963C18.1039 6.3191 18.1017 6.31835 18.0999 6.31759C18.0965 6.3161 18.0961 6.31515 18.0975 6.31658C18.0989 6.31803 18.1009 6.32064 18.1024 6.32436C18.1037 6.32749 18.1053 6.33267 18.1053 6.34135H20.1053C20.1053 5.25154 19.239 4.32031 18.1122 4.32031V6.32031Z" fill="#4A4E54" mask="url(#path-4-inside-2_356_11361)"/>
<mask id="path-6-inside-3_356_11361" fill="white">
<ellipse cx="20.5067" cy="12.6851" rx="0.993061" ry="1.02104"/>
</mask>
<ellipse cx="20.5067" cy="12.6851" rx="0.993061" ry="1.02104" fill="#4A4E54"/>
<path d="M20.4998 12.6851C20.4998 12.6938 20.4982 12.699 20.4969 12.7021C20.4954 12.7058 20.4935 12.7084 20.4921 12.7099C20.4907 12.7113 20.4911 12.7104 20.4945 12.7089C20.4962 12.7081 20.4985 12.7074 20.501 12.7068C20.5036 12.7063 20.5056 12.7061 20.5067 12.7061V14.7061C21.6335 14.7061 22.4998 13.7749 22.4998 12.6851H20.4998ZM20.5067 12.7061C20.5078 12.7061 20.5099 12.7063 20.5125 12.7068C20.515 12.7074 20.5172 12.7081 20.519 12.7089C20.5224 12.7104 20.5228 12.7113 20.5214 12.7099C20.52 12.7084 20.518 12.7058 20.5165 12.7021C20.5152 12.699 20.5137 12.6938 20.5137 12.6851H18.5137C18.5137 13.7749 19.38 14.7061 20.5067 14.7061V12.7061ZM20.5137 12.6851C20.5137 12.6764 20.5152 12.6712 20.5165 12.6681C20.518 12.6644 20.52 12.6618 20.5214 12.6603C20.5228 12.6589 20.5224 12.6598 20.519 12.6613C20.5172 12.6621 20.515 12.6629 20.5125 12.6634C20.5099 12.6639 20.5078 12.6641 20.5067 12.6641V10.6641C19.38 10.6641 18.5137 11.5953 18.5137 12.6851H20.5137ZM20.5067 12.6641C20.5056 12.6641 20.5036 12.6639 20.501 12.6634C20.4985 12.6629 20.4962 12.6621 20.4945 12.6613C20.4911 12.6598 20.4907 12.6589 20.4921 12.6603C20.4935 12.6618 20.4954 12.6644 20.4969 12.6681C20.4982 12.6712 20.4998 12.6764 20.4998 12.6851H22.4998C22.4998 11.5953 21.6335 10.6641 20.5067 10.6641V12.6641Z" fill="#4A4E54" mask="url(#path-6-inside-3_356_11361)"/>
<mask id="path-8-inside-4_356_11361" fill="white">
<ellipse cx="17.8632" cy="18.6578" rx="0.993061" ry="1.02104"/>
</mask>
<ellipse cx="17.8632" cy="18.6578" rx="0.993061" ry="1.02104" fill="#4A4E54"/>
<path d="M17.8562 18.6578C17.8562 18.6664 17.8547 18.6716 17.8534 18.6748C17.8519 18.6785 17.8499 18.6811 17.8485 18.6825C17.8471 18.684 17.8475 18.683 17.8509 18.6815C17.8527 18.6808 17.8549 18.68 17.8574 18.6795C17.86 18.6789 17.8621 18.6788 17.8632 18.6788V20.6788C18.9899 20.6788 19.8562 19.7476 19.8562 18.6578H17.8562ZM17.8632 18.6788C17.8643 18.6788 17.8663 18.6789 17.8689 18.6795C17.8715 18.68 17.8737 18.6808 17.8754 18.6815C17.8789 18.683 17.8792 18.684 17.8778 18.6825C17.8764 18.6811 17.8745 18.6785 17.873 18.6748C17.8717 18.6716 17.8701 18.6664 17.8701 18.6578H15.8701C15.8701 19.7476 16.7364 20.6788 17.8632 20.6788V18.6788ZM17.8701 18.6578C17.8701 18.6491 17.8717 18.6439 17.873 18.6408C17.8745 18.637 17.8764 18.6344 17.8778 18.633C17.8792 18.6316 17.8789 18.6325 17.8754 18.634C17.8737 18.6348 17.8715 18.6355 17.8689 18.636C17.8663 18.6366 17.8643 18.6367 17.8632 18.6367V16.6367C16.7364 16.6367 15.8701 17.5679 15.8701 18.6578H17.8701ZM17.8632 18.6367C17.8621 18.6367 17.86 18.6366 17.8574 18.636C17.8549 18.6355 17.8527 18.6348 17.8509 18.634C17.8475 18.6325 17.8471 18.6316 17.8485 18.633C17.8499 18.6344 17.8519 18.637 17.8534 18.6408C17.8547 18.6439 17.8562 18.6491 17.8562 18.6578H19.8562C19.8562 17.5679 18.9899 16.6367 17.8632 16.6367V18.6367Z" fill="#4A4E54" mask="url(#path-8-inside-4_356_11361)"/>
<mask id="path-10-inside-5_356_11361" fill="white">
<ellipse cx="12.1425" cy="21.4781" rx="0.993061" ry="1.02104"/>
</mask>
<ellipse cx="12.1425" cy="21.4781" rx="0.993061" ry="1.02104" fill="#4A4E54"/>
<path d="M12.1355 21.4781C12.1355 21.4868 12.134 21.4919 12.1327 21.4951C12.1312 21.4988 12.1292 21.5014 12.1278 21.5028C12.1264 21.5043 12.1268 21.5033 12.1302 21.5018C12.132 21.5011 12.1342 21.5003 12.1367 21.4998C12.1393 21.4993 12.1414 21.4991 12.1425 21.4991V23.4991C13.2692 23.4991 14.1355 22.5679 14.1355 21.4781H12.1355ZM12.1425 21.4991C12.1436 21.4991 12.1456 21.4993 12.1482 21.4998C12.1508 21.5003 12.153 21.5011 12.1547 21.5018C12.1582 21.5033 12.1585 21.5043 12.1571 21.5028C12.1557 21.5014 12.1538 21.4988 12.1523 21.4951C12.151 21.4919 12.1494 21.4868 12.1494 21.4781H10.1494C10.1494 22.5679 11.0157 23.4991 12.1425 23.4991V21.4991ZM12.1494 21.4781C12.1494 21.4694 12.151 21.4642 12.1523 21.4611C12.1538 21.4574 12.1557 21.4547 12.1571 21.4533C12.1585 21.4519 12.1582 21.4528 12.1547 21.4543C12.153 21.4551 12.1508 21.4558 12.1482 21.4564C12.1456 21.4569 12.1436 21.457 12.1425 21.457V19.457C11.0157 19.457 10.1494 20.3883 10.1494 21.4781H12.1494ZM12.1425 21.457C12.1414 21.457 12.1393 21.4569 12.1367 21.4564C12.1342 21.4558 12.132 21.4551 12.1302 21.4543C12.1268 21.4528 12.1264 21.4519 12.1278 21.4533C12.1292 21.4547 12.1312 21.4574 12.1327 21.4611C12.134 21.4642 12.1355 21.4694 12.1355 21.4781H14.1355C14.1355 20.3883 13.2692 19.457 12.1425 19.457V21.457Z" fill="#4A4E54" mask="url(#path-10-inside-5_356_11361)"/>
<mask id="path-12-inside-6_356_11361" fill="white">
<ellipse cx="5.88759" cy="18.6578" rx="0.993061" ry="1.02104"/>
</mask>
<ellipse cx="5.88759" cy="18.6578" rx="0.993061" ry="1.02104" fill="#4A4E54"/>
<path d="M5.88065 18.6578C5.88065 18.6664 5.87909 18.6716 5.87781 18.6748C5.87628 18.6785 5.87433 18.6811 5.87293 18.6825C5.87154 18.684 5.87191 18.683 5.87533 18.6815C5.87709 18.6808 5.87931 18.68 5.88184 18.6795C5.88443 18.6789 5.88649 18.6788 5.88759 18.6788V20.6788C7.01434 20.6788 7.88065 19.7476 7.88065 18.6578H5.88065ZM5.88759 18.6788C5.8887 18.6788 5.89075 18.6789 5.89334 18.6795C5.89587 18.68 5.89809 18.6808 5.89985 18.6815C5.90327 18.683 5.90364 18.684 5.90225 18.6825C5.90085 18.6811 5.89891 18.6785 5.89738 18.6748C5.89609 18.6716 5.89453 18.6664 5.89453 18.6578H3.89453C3.89453 19.7476 4.76084 20.6788 5.88759 20.6788V18.6788ZM5.89453 18.6578C5.89453 18.6491 5.89609 18.6439 5.89738 18.6408C5.89891 18.637 5.90085 18.6344 5.90225 18.633C5.90364 18.6316 5.90327 18.6325 5.89985 18.634C5.89809 18.6348 5.89587 18.6355 5.89334 18.636C5.89075 18.6366 5.8887 18.6367 5.88759 18.6367V16.6367C4.76084 16.6367 3.89453 17.5679 3.89453 18.6578H5.89453ZM5.88759 18.6367C5.88649 18.6367 5.88443 18.6366 5.88184 18.636C5.87931 18.6355 5.87709 18.6348 5.87533 18.634C5.87191 18.6325 5.87154 18.6316 5.87293 18.633C5.87433 18.6344 5.87628 18.637 5.87781 18.6408C5.87909 18.6439 5.88065 18.6491 5.88065 18.6578H7.88065C7.88065 17.5679 7.01434 16.6367 5.88759 16.6367V18.6367Z" fill="#4A4E54" mask="url(#path-12-inside-6_356_11361)"/>
<mask id="path-14-inside-7_356_11361" fill="white">
<ellipse cx="3.49306" cy="12.503" rx="0.993061" ry="1.02104"/>
</mask>
<ellipse cx="3.49306" cy="12.503" rx="0.993061" ry="1.02104" fill="#4A4E54"/>
<path d="M3.48612 12.503C3.48612 12.5117 3.48456 12.5168 3.48328 12.52C3.48174 12.5237 3.4798 12.5263 3.4784 12.5277C3.47701 12.5292 3.47738 12.5282 3.4808 12.5267C3.48256 12.526 3.48478 12.5252 3.48731 12.5247C3.4899 12.5242 3.49196 12.524 3.49306 12.524V14.524C4.61981 14.524 5.48612 13.5928 5.48612 12.503H3.48612ZM3.49306 12.524C3.49416 12.524 3.49622 12.5242 3.49881 12.5247C3.50134 12.5252 3.50356 12.526 3.50532 12.5267C3.50874 12.5282 3.50911 12.5292 3.50772 12.5277C3.50632 12.5263 3.50438 12.5237 3.50285 12.52C3.50156 12.5168 3.5 12.5117 3.5 12.503H1.5C1.5 13.5928 2.36631 14.524 3.49306 14.524V12.524ZM3.5 12.503C3.5 12.4943 3.50156 12.4891 3.50285 12.486C3.50438 12.4823 3.50632 12.4796 3.50772 12.4782C3.50911 12.4768 3.50874 12.4777 3.50532 12.4792C3.50356 12.48 3.50134 12.4807 3.49881 12.4813C3.49622 12.4818 3.49416 12.4819 3.49306 12.4819V10.4819C2.36631 10.4819 1.5 11.4132 1.5 12.503H3.5ZM3.49306 12.4819C3.49196 12.4819 3.4899 12.4818 3.48731 12.4813C3.48478 12.4807 3.48256 12.48 3.4808 12.4792C3.47738 12.4777 3.47701 12.4768 3.4784 12.4782C3.4798 12.4796 3.48174 12.4823 3.48328 12.486C3.48456 12.4891 3.48612 12.4943 3.48612 12.503H5.48612C5.48612 11.4132 4.61981 10.4819 3.49306 10.4819V12.4819Z" fill="#4A4E54" mask="url(#path-14-inside-7_356_11361)"/>
<mask id="path-16-inside-8_356_11361" fill="white">
<ellipse cx="5.88759" cy="5.98198" rx="0.993061" ry="1.02104"/>
</mask>
<ellipse cx="5.88759" cy="5.98198" rx="0.993061" ry="1.02104" fill="#4A4E54"/>
<path d="M5.88065 5.98198C5.88065 5.99066 5.87909 5.99585 5.87781 5.99897C5.87628 6.0027 5.87433 6.00531 5.87293 6.00675C5.87154 6.00818 5.87191 6.00723 5.87533 6.00575C5.87709 6.00498 5.87931 6.00423 5.88184 6.0037C5.88443 6.00316 5.88649 6.00302 5.88759 6.00302V8.00302C7.01434 8.00302 7.88065 7.07179 7.88065 5.98198H5.88065ZM5.88759 6.00302C5.8887 6.00302 5.89075 6.00316 5.89334 6.0037C5.89587 6.00423 5.89809 6.00498 5.89985 6.00575C5.90327 6.00723 5.90364 6.00818 5.90225 6.00675C5.90085 6.00531 5.89891 6.0027 5.89738 5.99897C5.89609 5.99585 5.89453 5.99066 5.89453 5.98198H3.89453C3.89453 7.07179 4.76084 8.00302 5.88759 8.00302V6.00302ZM5.89453 5.98198C5.89453 5.97329 5.89609 5.96811 5.89738 5.96498C5.89891 5.96126 5.90085 5.95865 5.90225 5.95721C5.90364 5.95578 5.90327 5.95672 5.89985 5.95821C5.89809 5.95898 5.89587 5.95973 5.89334 5.96026C5.89075 5.9608 5.8887 5.96094 5.88759 5.96094V3.96094C4.76084 3.96094 3.89453 4.89216 3.89453 5.98198H5.89453ZM5.88759 5.96094C5.88649 5.96094 5.88443 5.9608 5.88184 5.96026C5.87931 5.95973 5.87709 5.95898 5.87533 5.95821C5.87191 5.95672 5.87154 5.95578 5.87293 5.95721C5.87433 5.95865 5.87628 5.96126 5.87781 5.96498C5.87909 5.96811 5.88065 5.97329 5.88065 5.98198H7.88065C7.88065 4.89216 7.01434 3.96094 5.88759 3.96094V5.96094Z" fill="#4A4E54" mask="url(#path-16-inside-8_356_11361)"/>
</svg>
