<svg width="40" height="39" viewBox="0 0 40 39" fill="none" xmlns="http://www.w3.org/2000/svg">
<path d="M22.1346 1.05231C20.8042 0.318754 19.1941 0.315733 17.861 1.04429L2.33056 9.53154C0.894374 10.3164 0.000195393 11.8285 0.000173373 13.4722L4.0833e-10 26.4145C-2.29943e-05 28.131 0.974256 29.6971 2.5093 30.4478L4.70556 31.522C5.24504 30.2223 5.89827 28.9569 6.68583 27.7913C11.0634 21.3126 14.1449 19.2185 17.0134 17.3011C17.2279 17.1577 17.2354 16.8441 17.0283 16.6901L10.3798 11.7476C10.2736 11.6686 10.2808 11.5067 10.3936 11.4377L12.4095 10.203C12.5121 10.1401 12.6386 10.131 12.749 10.1786L17.1143 12.0569C17.227 12.1054 17.3561 12.0949 17.4596 12.029L18.9955 11.0496C19.083 10.9939 19.1989 11.0208 19.2533 11.1095L20.1671 12.6014C20.2107 12.6726 20.2019 12.7643 20.1457 12.8259L19.9863 13.0003C19.8989 13.0959 19.9328 13.2498 20.0522 13.2994L22.0868 14.1447C22.1509 14.1714 22.2243 14.1596 22.2786 14.1161C23.1691 13.4036 25.4069 12.1935 28.1451 12.3252C28.3662 12.3358 28.5184 12.5457 28.441 12.7543C28.0396 13.8349 26.7638 15.7381 23.9118 17.102C23.8531 17.1301 23.8119 17.1869 23.8048 17.2518L23.5754 19.347C23.5633 19.4576 23.6494 19.5543 23.7601 19.5543H24.0246C24.0932 19.5543 24.1561 19.5922 24.1885 19.653L24.9803 21.1404C25.0265 21.2273 24.9977 21.3354 24.9144 21.3874L23.2521 22.425C23.2045 22.4547 23.1728 22.5044 23.1658 22.5603L22.5552 27.4251C22.5475 27.4865 22.51 27.5401 22.4552 27.5682L20.2077 28.7196C20.0892 28.7803 19.9476 28.6999 19.938 28.5666L19.3268 20.0853C19.3176 19.9572 19.1866 19.8763 19.0713 19.9314C16.8589 20.988 12.7208 24.3142 12.145 30.1349C11.9581 32.0247 12.0715 33.7465 12.4073 35.2888L18.0494 38.0483C19.2808 38.6506 20.7191 38.6506 21.9506 38.0483L37.4907 30.4478C39.0257 29.6971 40 28.1311 40 26.4145V13.5585C40 11.9207 39.1123 10.4131 37.6842 9.62575L22.1346 1.05231Z" fill="#316BFF"/>
</svg>
