<svg width="1118" height="564" viewBox="0 0 1118 564" fill="none" xmlns="http://www.w3.org/2000/svg">
<path d="M110.292 365.854C81.0418 342.925 61.8426 309.641 56.9185 273.323C51.9944 237.006 61.7488 200.63 84.0357 172.199C106.323 143.768 139.317 125.61 175.759 121.72C212.202 117.829 249.108 128.525 278.359 151.455L246.195 192.485C228.14 178.332 205.36 171.73 182.865 174.131C160.371 176.532 140.005 187.741 126.249 205.29C112.492 222.839 106.471 245.292 109.511 267.709C112.55 290.126 124.401 310.671 142.456 324.824L110.292 365.854Z" fill="#0B4ECF" fill-opacity="0.17"/>
<path d="M1066.95 86.9147C1080.48 109.966 1084.54 137.295 1078.26 162.889C1071.98 188.484 1055.87 210.248 1033.46 223.393C1011.06 236.538 984.199 239.988 958.793 232.983C933.387 225.979 911.517 209.094 897.993 186.042L930.327 167.072C938.674 181.3 952.174 191.723 967.856 196.046C983.538 200.37 1000.12 198.241 1013.95 190.127C1027.78 182.013 1037.72 168.579 1041.6 152.781C1045.48 136.982 1042.96 120.113 1034.62 105.885L1066.95 86.9147Z" fill="#145CE6" fill-opacity="0.63"/>
<path d="M689.158 501.337C710.192 484.849 723.998 460.915 727.538 434.801C731.079 408.686 724.065 382.529 708.039 362.085C692.013 341.641 668.288 328.584 642.083 325.786C615.878 322.989 589.34 330.68 568.307 347.168L591.434 376.672C604.417 366.495 620.798 361.747 636.973 363.474C653.148 365.201 667.793 373.26 677.685 385.879C687.577 398.499 691.906 414.644 689.721 430.763C687.535 446.883 679.014 461.656 666.031 471.833L689.158 501.337Z" fill="white" fill-opacity="0.08"/>
</svg>
